<?xml version="1.0" encoding="iso-8859-1"?>
<!-- Generator: Adobe Illustrator 19.0.0, SVG Export Plug-In . SVG Version: 6.00 Build 0)  -->
<svg version="1.1" id="Layer_1" xmlns="http://www.w3.org/2000/svg" xmlns:xlink="http://www.w3.org/1999/xlink" x="0px" y="0px"
	 viewBox="0 0 512.001 512.001" style="enable-background:new 0 0 512.001 512.001;" xml:space="preserve">
<path style="fill:#997443;" d="M344.308,224.523c1.599-3.843,2.484-8.057,2.484-12.48c0-12.324-6.856-23.044-16.962-28.558
	c-0.319-15.879-12.011-28.96-27.271-31.425c-5.954-7.545-15.173-12.394-25.531-12.394c-2.307,0-4.558,0.244-6.73,0.701
	c-5.956-6.694-14.63-10.916-24.296-10.916c-10.073,0-19.075,4.582-25.04,11.774c-3.137-1.009-6.482-1.559-9.956-1.559
	c-15.716,0-28.827,11.151-31.855,25.973c-14.48,3.285-25.294,16.224-25.294,31.699c0,3.608,0.596,7.075,1.681,10.319
	c-1.373,4.759-2.382,9.67-3.002,14.704c-4.113,5.445-6.555,12.224-6.555,19.576c0,8.188,3.033,15.663,8.029,21.379
	c-0.098,1.027-0.152,2.065-0.152,3.117c0,13.09,7.738,24.364,18.885,29.518c4.135,12.677,15.844,21.922,29.784,22.396
	c7.156,3.793,14.852,6.69,22.943,8.567c5.353,3.877,11.93,6.168,19.044,6.168c5.462,0,10.607-1.354,15.125-3.733
	c3.583,1.357,7.464,2.107,11.523,2.107c11.61,0,21.794-6.091,27.546-15.249c17.316-0.721,31.136-14.982,31.136-32.477
	c0-0.751-0.034-1.494-0.084-2.233c2.449-4.263,4.58-8.728,6.357-13.374c8.034-5.919,13.249-15.442,13.249-26.188
	C349.369,235.528,347.509,229.558,344.308,224.523z"/>
<g>
	<circle style="fill:#5A3C3D;" cx="203.653" cy="293.221" r="7.353"/>
	<circle style="fill:#5A3C3D;" cx="246.002" cy="316.248" r="7.353"/>
	<circle style="fill:#5A3C3D;" cx="234.415" cy="293.221" r="7.353"/>
	<circle style="fill:#5A3C3D;" cx="316.854" cy="259.083" r="7.353"/>
</g>
<g>
	<circle style="fill:#B3874F;" cx="193.723" cy="184.147" r="7.353"/>
	<circle style="fill:#B3874F;" cx="224.485" cy="191.502" r="7.353"/>
	<circle style="fill:#B3874F;" cx="224.485" cy="159.39" r="7.353"/>
	<circle style="fill:#B3874F;" cx="251.869" cy="172.18" r="7.353"/>
</g>
<path style="fill:#997443;" d="M450.181,395.526c1.599-3.843,2.484-8.057,2.484-12.48c0-12.324-6.856-23.044-16.962-28.558
	c-0.319-15.879-12.011-28.96-27.27-31.425c-5.954-7.545-15.173-12.394-25.531-12.394c-2.307,0-4.558,0.244-6.729,0.701
	c-5.956-6.694-14.63-10.916-24.296-10.916c-10.073,0-19.075,4.582-25.04,11.774c-3.137-1.009-6.482-1.559-9.956-1.559
	c-15.716,0-28.827,11.151-31.854,25.973c-14.48,3.285-25.294,16.224-25.294,31.699c0,3.608,0.596,7.075,1.681,10.319
	c-1.373,4.759-2.382,9.67-3.001,14.704c-4.113,5.444-6.555,12.224-6.555,19.576c0,8.188,3.033,15.663,8.029,21.379
	c-0.098,1.027-0.152,2.065-0.152,3.117c0,13.09,7.738,24.364,18.885,29.518c4.135,12.677,15.844,21.922,29.784,22.396
	c7.156,3.793,14.852,6.691,22.943,8.567c5.352,3.877,11.93,6.168,19.044,6.168c5.462,0,10.607-1.354,15.125-3.733
	c3.583,1.357,7.464,2.107,11.523,2.107c11.61,0,21.794-6.091,27.545-15.249c17.317-0.721,31.136-14.982,31.136-32.477
	c0-0.751-0.034-1.494-0.084-2.233c2.449-4.263,4.58-8.728,6.357-13.374c8.034-5.919,13.249-15.442,13.249-26.188
	C455.243,406.53,453.382,400.561,450.181,395.526z"/>
<g>
	<circle style="fill:#5A3C3D;" cx="309.53" cy="464.22" r="7.353"/>
	<circle style="fill:#5A3C3D;" cx="351.879" cy="487.246" r="7.353"/>
	<circle style="fill:#5A3C3D;" cx="340.281" cy="464.22" r="7.353"/>
	<circle style="fill:#5A3C3D;" cx="422.73" cy="430.081" r="7.353"/>
</g>
<g>
	<circle style="fill:#B3874F;" cx="299.6" cy="355.156" r="7.353"/>
	<circle style="fill:#B3874F;" cx="330.351" cy="362.501" r="7.353"/>
	<circle style="fill:#B3874F;" cx="330.351" cy="330.388" r="7.353"/>
	<circle style="fill:#B3874F;" cx="357.746" cy="343.179" r="7.353"/>
</g>
<path style="fill:#997443;" d="M255.068,395.526c1.599-3.843,2.484-8.057,2.484-12.48c0-12.324-6.856-23.044-16.962-28.558
	c-0.319-15.879-12.011-28.96-27.271-31.425c-5.954-7.545-15.173-12.394-25.531-12.394c-2.307,0-4.558,0.244-6.73,0.701
	c-5.955-6.694-14.63-10.916-24.296-10.916c-10.073,0-19.075,4.582-25.04,11.774c-3.137-1.009-6.482-1.559-9.956-1.559
	c-15.716,0-28.827,11.151-31.855,25.973c-14.48,3.285-25.294,16.224-25.294,31.699c0,3.608,0.596,7.075,1.681,10.319
	c-1.373,4.759-2.382,9.67-3.001,14.704c-4.114,5.444-6.555,12.224-6.555,19.576c0,8.188,3.033,15.663,8.029,21.379
	c-0.098,1.027-0.152,2.065-0.152,3.117c0,13.09,7.738,24.364,18.885,29.518c4.136,12.677,15.843,21.922,29.785,22.396
	c7.156,3.793,14.852,6.691,22.943,8.567c5.352,3.877,11.93,6.168,19.044,6.168c5.462,0,10.607-1.354,15.125-3.733
	c3.583,1.357,7.464,2.107,11.523,2.107c11.61,0,21.794-6.091,27.545-15.249c17.317-0.721,31.136-14.982,31.136-32.477
	c0-0.751-0.034-1.494-0.084-2.233c2.449-4.263,4.581-8.728,6.357-13.374c8.034-5.919,13.249-15.442,13.249-26.188
	C260.129,406.53,258.268,400.561,255.068,395.526z"/>
<g>
	<circle style="fill:#5A3C3D;" cx="114.418" cy="464.22" r="7.353"/>
	<circle style="fill:#5A3C3D;" cx="156.767" cy="487.246" r="7.353"/>
	<circle style="fill:#5A3C3D;" cx="145.169" cy="464.22" r="7.353"/>
	<circle style="fill:#5A3C3D;" cx="227.619" cy="430.081" r="7.353"/>
</g>
<g>
	<circle style="fill:#B3874F;" cx="104.488" cy="355.156" r="7.353"/>
	<circle style="fill:#B3874F;" cx="135.239" cy="362.501" r="7.353"/>
	<circle style="fill:#B3874F;" cx="135.239" cy="330.388" r="7.353"/>
	<circle style="fill:#B3874F;" cx="162.634" cy="343.179" r="7.353"/>
</g>
<path style="fill:#00783E;" d="M383.051,338.003c24.036,24.035,65.282,21.76,65.282,21.76s2.275-41.246-21.761-65.281
	c-24.035-24.034-65.281-21.76-65.281-21.76S359.015,313.969,383.051,338.003z"/>
<path d="M458.849,394.781c1.15-3.791,1.733-7.722,1.733-11.734c0-7.05-1.797-13.806-5.16-19.775
	c0.463-0.935,0.755-1.971,0.815-3.072c0.1-1.828,2.168-45.08-24.068-71.314c-26.234-26.233-69.481-24.164-71.313-24.066
	c-4.028,0.222-7.245,3.438-7.467,7.466c-0.042,0.779-0.441,9.066,1.139,20.35c-0.879-0.057-1.761-0.096-2.648-0.096
	c-5.575,0-10.991,1.147-15.971,3.288c1.213-3.864,1.854-7.936,1.854-12.097c0-0.106,0-0.211-0.001-0.319
	c1.837-3.372,3.49-6.852,4.933-10.39c9.177-7.645,14.59-19.093,14.59-31.087c0-6.34-1.481-12.544-4.309-18.158
	c1.15-3.79,1.733-7.72,1.733-11.734c0-13.308-6.528-25.647-17.295-33.159c-2.153-16.542-14.309-30.14-30.605-34.04
	c-1.754-1.915-3.673-3.63-5.719-5.152l73.8-127.82c2.186-3.785,0.889-8.626-2.897-10.811c-3.785-2.184-8.626-0.89-10.811,2.897
	l-74.463,128.97c-3.13-0.767-6.375-1.177-9.685-1.177c-1.319,0-2.64,0.065-3.957,0.194c-7.39-6.661-17.034-10.408-27.068-10.408
	c-10.345,0-20.158,3.918-27.608,10.893c-2.429-0.451-4.9-0.679-7.387-0.679c-17.464,0-32.868,11.323-38.326,27.54
	c-15.962,5.685-26.737,20.7-26.737,38.047c0,3.523,0.458,7.011,1.361,10.404c-1.004,3.811-1.791,7.704-2.353,11.623
	c-4.511,6.679-6.885,14.436-6.885,22.572c0,8.654,2.778,17.046,7.88,23.969c-0.003,0.176-0.003,0.351-0.003,0.527
	c0,9.73,3.553,18.951,9.639,26.136c-9.909,0.287-19.263,4.156-26.429,10.865c-2.43-0.451-4.901-0.679-7.387-0.679
	c-17.464,0-32.868,11.323-38.326,27.54c-15.962,5.685-26.737,20.7-26.737,38.047c0,3.523,0.458,7.012,1.362,10.404
	c-1.003,3.81-1.791,7.704-2.353,11.623c-4.511,6.679-6.885,14.436-6.885,22.572c0,8.654,2.778,17.046,7.88,23.969
	c-0.002,0.176-0.003,0.352-0.003,0.528c0,14.565,7.93,28.016,20.463,35.15c5.828,13.79,18.976,23.35,33.974,24.566
	c6.918,3.516,14.237,6.24,21.802,8.115c6.632,4.41,14.319,6.733,22.333,6.733c5.364,0,10.707-1.082,15.641-3.149
	c3.574,1.013,7.262,1.524,11.007,1.524c12.628,0,24.287-5.773,31.92-15.625c19.743-2.788,34.676-19.644,34.676-40.016
	c0-0.106-0.001-0.211-0.001-0.319c1.532-2.812,2.927-5.702,4.188-8.633c2.387,11.218,9.485,21.059,19.574,26.803
	c5.828,13.79,18.977,23.35,33.974,24.567c6.92,3.515,14.238,6.24,21.802,8.113c6.632,4.411,14.318,6.734,22.333,6.734
	c5.364,0,10.708-1.082,15.641-3.149c3.573,1.012,7.261,1.523,11.007,1.523c12.628,0,24.288-5.772,31.921-15.623
	c19.742-2.789,34.675-19.646,34.675-40.016c0-0.106,0-0.211-0.001-0.319c1.838-3.374,3.491-6.854,4.933-10.389
	c9.177-7.646,14.59-19.095,14.59-31.088C463.157,406.599,461.677,400.394,458.849,394.781z M420.974,300.079
	c15.396,15.396,18.699,39.521,19.347,51.691c-12.156-0.627-36.213-3.902-51.675-19.364c-15.387-15.386-18.694-39.497-19.344-51.673
	C381.483,281.386,405.59,284.694,420.974,300.079z M153.9,241.937c0-5.395,1.714-10.515,4.956-14.805
	c0.839-1.111,1.371-2.423,1.541-3.804c0.561-4.563,1.487-9.098,2.75-13.478c0.444-1.542,0.411-3.182-0.098-4.703
	c-0.844-2.524-1.273-5.151-1.273-7.807c0-11.564,7.867-21.424,19.13-23.98c3.032-0.688,5.381-3.089,6.002-6.135
	c2.325-11.381,12.46-19.642,24.1-19.642c2.568,0,5.101,0.397,7.531,1.179c3.078,0.99,6.452,0.008,8.517-2.482
	c4.697-5.663,11.603-8.911,18.948-8.911c7.011,0,13.711,3.012,18.382,8.262c1.887,2.121,4.765,3.067,7.541,2.484
	c1.678-0.352,3.394-0.532,5.101-0.532c7.571,0,14.611,3.419,19.317,9.384c1.228,1.555,2.994,2.594,4.95,2.91
	c11.709,1.891,20.381,11.889,20.619,23.77c0.057,2.838,1.629,5.429,4.122,6.79c7.919,4.32,12.838,12.601,12.838,21.61
	c0,3.27-0.632,6.445-1.877,9.44c-0.992,2.386-0.758,5.105,0.629,7.286c2.503,3.936,3.825,8.49,3.825,13.167
	c0,7.897-3.656,15.12-10.028,19.815c-1.221,0.899-2.157,2.13-2.698,3.545c-1.606,4.2-3.567,8.325-5.826,12.258
	c-0.781,1.359-1.141,2.919-1.034,4.483c0.045,0.66,0.066,1.198,0.066,1.693c0,7.543-3.458,14.605-9.328,19.259
	c-11.771,1.259-22.25,7.648-28.856,17.062c-3.805,2.28-8.124,3.492-12.583,3.492c-2.993,0-5.925-0.536-8.719-1.595
	c-2.12-0.804-4.484-0.66-6.49,0.398c-3.557,1.872-7.406,2.822-11.439,2.822c-5.209,0-10.189-1.612-14.401-4.663
	c-0.854-0.618-1.821-1.06-2.848-1.298c-0.446-0.104-0.889-0.22-1.332-0.332c-2.635-1.294-5.432-2.323-8.371-3.026
	c-7.654-8.358-18.345-13.093-29.776-13.093c-0.64,0-1.279,0.017-1.919,0.047c-2.545-2.659-4.465-5.824-5.6-9.305
	c-0.683-2.093-2.206-3.806-4.202-4.73c-8.682-4.015-14.293-12.782-14.293-22.335c0-0.761,0.039-1.557,0.116-2.365
	c0.207-2.165-0.488-4.321-1.92-5.96C156.057,253.625,153.9,247.882,153.9,241.937z M242.185,432.755
	c-1.22,0.899-2.156,2.13-2.697,3.545c-1.605,4.199-3.566,8.323-5.826,12.257c-0.781,1.358-1.141,2.919-1.034,4.483
	c0.044,0.66,0.066,1.198,0.066,1.693c0,13.228-10.345,24.02-23.55,24.569c-2.603,0.109-4.987,1.491-6.374,3.698
	c-4.541,7.229-12.332,11.545-20.843,11.545c-2.993,0-5.925-0.536-8.719-1.595c-2.12-0.804-4.484-0.659-6.49,0.398
	c-3.557,1.872-7.406,2.822-11.439,2.822c-5.209,0-10.189-1.612-14.401-4.663c-0.855-0.619-1.825-1.062-2.853-1.299
	c-7.335-1.702-14.409-4.344-21.024-7.851c-1.062-0.564-2.237-0.877-3.438-0.918c-10.285-0.349-19.338-7.157-22.529-16.94
	c-0.683-2.092-2.206-3.805-4.203-4.729c-8.683-4.014-14.292-12.781-14.292-22.334c0-0.762,0.039-1.558,0.116-2.366
	c0.207-2.165-0.488-4.321-1.92-5.959c-3.916-4.482-6.073-10.224-6.073-16.17c0-5.395,1.714-10.515,4.956-14.805
	c0.839-1.111,1.37-2.423,1.541-3.803c0.562-4.563,1.488-9.099,2.751-13.479c0.444-1.542,0.411-3.182-0.098-4.703
	c-0.844-2.524-1.273-5.151-1.273-7.807c0-11.564,7.867-21.424,19.13-23.98c3.033-0.688,5.381-3.089,6.002-6.134
	c2.325-11.381,12.46-19.642,24.1-19.642c2.565,0,5.099,0.397,7.533,1.179c3.078,0.991,6.451,0.008,8.515-2.483
	c4.697-5.663,11.603-8.911,18.948-8.911c7.011,0,13.711,3.011,18.382,8.262c1.887,2.12,4.765,3.067,7.541,2.484
	c1.678-0.352,3.394-0.532,5.101-0.532c7.571,0,14.611,3.419,19.317,9.384c1.228,1.556,2.994,2.594,4.95,2.91
	c11.709,1.891,20.381,11.889,20.619,23.77c0.057,2.838,1.629,5.429,4.122,6.79c7.919,4.32,12.839,12.6,12.839,21.61
	c0,3.269-0.632,6.445-1.877,9.44c-0.992,2.386-0.758,5.105,0.629,7.286c2.503,3.936,3.825,8.49,3.825,13.167
	C252.214,420.836,248.558,428.059,242.185,432.755z M254.077,354.93c-1.791-1.85-3.759-3.546-5.904-5.042
	c-0.402-3.093-1.156-6.084-2.219-8.927c4.879-0.175,9.713-1.23,14.207-3.113c1.449,0.411,2.92,0.717,4.403,0.961
	C259.838,343.225,256.227,348.743,254.077,354.93z M437.299,432.755c-1.22,0.899-2.156,2.13-2.698,3.545
	c-1.605,4.197-3.565,8.321-5.827,12.257c-0.781,1.359-1.141,2.92-1.033,4.483c0.044,0.66,0.066,1.198,0.066,1.693
	c0,13.227-10.345,24.019-23.551,24.569c-2.603,0.109-4.987,1.491-6.373,3.698c-4.54,7.229-12.332,11.544-20.843,11.544
	c-2.994,0-5.928-0.536-8.719-1.593c-2.122-0.803-4.485-0.657-6.49,0.398c-3.556,1.872-7.405,2.822-11.438,2.822
	c-5.209,0-10.189-1.612-14.4-4.664c-0.856-0.619-1.826-1.062-2.855-1.3c-7.334-1.701-14.407-4.342-21.024-7.85
	c-1.061-0.562-2.236-0.876-3.437-0.917c-10.285-0.35-19.339-7.158-22.53-16.942c-0.683-2.092-2.206-3.805-4.203-4.729
	c-8.683-4.014-14.293-12.781-14.293-22.334c0-0.762,0.039-1.558,0.116-2.366c0.206-2.165-0.488-4.32-1.919-5.959
	c-0.276-0.317-0.521-0.665-0.783-0.997c1.94-4.771,2.979-9.921,2.979-15.174c0-5.272-1.038-10.446-3.01-15.269
	c0.654-1.007,1.088-2.143,1.236-3.34c0.562-4.563,1.488-9.099,2.751-13.479c0.444-1.542,0.411-3.182-0.098-4.703
	c-0.844-2.524-1.273-5.151-1.273-7.807c0-11.565,7.866-21.425,19.129-23.979c3.033-0.688,5.382-3.089,6.004-6.134
	c2.325-11.382,12.46-19.643,24.1-19.643c2.565,0,5.099,0.397,7.533,1.179c3.079,0.991,6.451,0.008,8.515-2.483
	c4.697-5.663,11.603-8.911,18.948-8.911c2.097,0,4.157,0.264,6.16,0.785c3.441,11.785,9.339,24.371,19.415,34.447
	c19.106,19.106,47.223,23.197,61.806,23.973c3.556,4.368,5.492,9.764,5.492,15.474c0,3.269-0.632,6.445-1.877,9.44
	c-0.992,2.386-0.758,5.105,0.629,7.286c2.503,3.936,3.825,8.49,3.825,13.167C447.328,420.836,443.672,428.059,437.299,432.755z"/>
<g>
</g>
<g>
</g>
<g>
</g>
<g>
</g>
<g>
</g>
<g>
</g>
<g>
</g>
<g>
</g>
<g>
</g>
<g>
</g>
<g>
</g>
<g>
</g>
<g>
</g>
<g>
</g>
<g>
</g>
</svg>
