<?xml version="1.0" encoding="iso-8859-1"?>
<!-- Generator: Adobe Illustrator 19.0.0, SVG Export Plug-In . SVG Version: 6.00 Build 0)  -->
<svg version="1.1" id="Capa_1" xmlns="http://www.w3.org/2000/svg" xmlns:xlink="http://www.w3.org/1999/xlink" x="0px" y="0px"
	 viewBox="0 0 512 512" style="enable-background:new 0 0 512 512;" xml:space="preserve">
<circle style="fill:#FFDC00;" cx="256" cy="256" r="256"/>
<path style="fill:#F9C41E;" d="M94.6,350.929l161.658,161.067C397.524,511.857,512,397.299,512,256
	c0-5.32-0.182-10.597-0.502-15.836L407.097,135.762L94.6,350.929z"/>
<path style="fill:#D6283B;" d="M433.532,245.954c0,113.058-85.186,130.379-188.325,130.379s-167.54-27.421-167.54-102.036
	s59.521,5.669,175.098-129.119C319.902,66.882,433.532,131.636,433.532,245.954z"/>
<path style="fill:#C20231;" d="M79.522,255.905c-1.235,4.781-1.856,10.78-1.856,18.393c0,74.615,64.401,102.036,167.54,102.036
	c100.034,0,183.175-16.298,188.091-120.428H79.522V255.905z"/>
<path style="fill:#A13939;" d="M245.207,390.833c-57.16,0-99.524-8.137-129.515-24.876c-34.854-19.453-52.526-50.292-52.526-91.66
	c0-45.465,23.028-49.875,47.408-54.544c28.179-5.396,70.764-13.552,131.184-84.014c31.006-36.159,74.744-48.413,117.003-32.775
	c53.396,19.758,89.271,77.221,89.271,142.99c0,29.552-5.62,54.797-16.705,75.034c-10.456,19.089-26.064,34.334-46.391,45.312
	C344.668,388.045,289.11,390.833,245.207,390.833z M322.443,125.301c-21.629,0-42.15,10.049-58.67,29.315
	c-67.02,78.16-117.552,87.837-147.744,93.619c-9.009,1.725-16.789,3.215-19.747,5.861c-3.401,3.043-4.115,12.665-4.115,20.201
	c0,37.578,15.865,87.536,153.041,87.536c107.314,0,173.825-19.385,173.825-115.879c0-62.009-35.326-102.837-70.336-115.792
	C339.893,126.904,331.079,125.301,322.443,125.301z"/>
<path style="fill:#7C3131;" d="M418.774,255.905c-4.512,87.881-70.052,105.929-173.567,105.929
	c-137.176,0-153.041-49.958-153.041-87.536c0-6.401,0.522-14.292,2.761-18.393h-30.17c-1.033,5.241-1.591,11.32-1.591,18.393
	c0,41.368,17.672,72.207,52.526,91.66c29.99,16.739,72.355,24.876,129.515,24.876c43.903,0,99.461-2.789,139.729-24.534
	c20.327-10.977,35.935-26.222,46.391-45.312c9.818-17.925,15.34-39.787,16.475-65.083L418.774,255.905L418.774,255.905z"/>
<circle style="fill:#FFFFFF;" cx="333.67" cy="240.33" r="35.33"/>
<path style="fill:#E0E0E0;" d="M301.947,255.905c5.757,11.704,17.795,19.762,31.72,19.762c13.924,0,25.963-8.058,31.719-19.762
	H301.947z"/>
<g>
</g>
<g>
</g>
<g>
</g>
<g>
</g>
<g>
</g>
<g>
</g>
<g>
</g>
<g>
</g>
<g>
</g>
<g>
</g>
<g>
</g>
<g>
</g>
<g>
</g>
<g>
</g>
<g>
</g>
</svg>
