<?xml version="1.0" encoding="iso-8859-1"?>
<!-- Generator: Adobe Illustrator 19.0.0, SVG Export Plug-In . SVG Version: 6.00 Build 0)  -->
<svg version="1.1" id="Layer_1" xmlns="http://www.w3.org/2000/svg" xmlns:xlink="http://www.w3.org/1999/xlink" x="0px" y="0px"
	 viewBox="0 0 512.004 512.004" style="enable-background:new 0 0 512.004 512.004;" xml:space="preserve">
<g transform="translate(-1)">
	<path style="fill:#ED7161;" d="M512.165,233.933H352.739c-4.802,0-9.49,2.154-12.2,6.118c-4.74,6.956-12.685,11.538-21.742,11.538
		c-9.066,0-17.002-4.582-21.751-11.538c-2.71-3.964-7.389-6.118-12.2-6.118H125.42c-0.521,5.817-0.83,11.697-0.83,17.655
		c0,107.255,86.943,194.207,194.207,194.207c107.255,0,194.207-86.952,194.207-194.207
		C513.004,245.629,512.686,239.75,512.165,233.933"/>
	<path style="fill:#D13834;" d="M124.586,251.588c0-5.959,0.309-11.838,0.839-17.655h159.426c4.802,0,9.481,2.154,12.191,6.118
		c4.749,6.956,12.685,11.538,21.751,11.538s17.002-4.582,21.751-11.538c2.71-3.964,7.389-6.118,12.191-6.118H379.2
		c-10.955-94.402-91.065-167.724-188.407-167.724C85.974,66.209,1,151.183,1,256.002s84.974,189.793,189.793,189.793
		c22.254,0,43.511-4.025,63.356-11.061C178.682,408.092,124.586,336.174,124.586,251.588"/>
	<g>
		<path style="fill:#ED7161;" d="M257,154.027c-34.066,0-61.793-27.516-61.793-61.334c0-4.873,3.955-8.828,8.828-8.828
			c4.882,0,8.828,3.955,8.828,8.828c0,24.082,19.8,43.679,44.138,43.679c4.873,0,8.828,3.955,8.828,8.828
			C265.828,150.072,261.873,154.027,257,154.027"/>
		<path style="fill:#ED7161;" d="M124.586,154.027c-4.873,0-8.828-3.955-8.828-8.828c0-4.873,3.955-8.828,8.828-8.828
			c24.338,0,44.138-19.597,44.138-43.679c0-4.873,3.955-8.828,8.828-8.828c4.873,0,8.828,3.955,8.828,8.828
			C186.379,126.512,158.661,154.027,124.586,154.027"/>
		<path style="fill:#ED7161;" d="M225.975,178.381c-2.26,0-4.52-0.865-6.241-2.586c-17.205-17.205-45.215-17.205-62.42,0
			c-3.452,3.452-9.039,3.452-12.482,0c-3.452-3.452-3.452-9.031,0-12.482c24.09-24.099,63.294-24.099,87.384,0
			c3.452,3.452,3.452,9.031,0,12.482C230.494,177.516,228.234,178.381,225.975,178.381"/>
	</g>
	<g>
		<path style="fill:#D13834;" d="M194.692,335.668c-11.238-16.534-19.271-35.399-23.181-55.729
			c-1.059-5.526,3.046-10.699,8.669-10.699h74.681c7.865,0,11.802,9.507,6.241,15.069l-52.745,52.745
			C204.394,341.018,197.844,340.303,194.692,335.668"/>
		<path style="fill:#D13834;" d="M301.138,390.201c0,5.623-5.173,9.728-10.699,8.669c-20.33-3.911-39.194-11.935-55.729-23.181
			c-4.626-3.151-5.35-9.702-1.386-13.665l52.745-52.745c5.561-5.561,15.069-1.615,15.069,6.241V390.201z"/>
		<path style="fill:#D13834;" d="M402.873,375.689c-16.534,11.246-35.399,19.271-55.729,23.181
			c-5.526,1.059-10.699-3.046-10.699-8.669V315.52c0-7.865,9.507-11.802,15.069-6.241l52.745,52.745
			C408.223,365.987,407.508,372.537,402.873,375.689"/>
		<path style="fill:#D13834;" d="M440.77,335.668c-3.151,4.634-9.702,5.349-13.665,1.386l-52.745-52.745
			c-5.561-5.561-1.624-15.069,6.241-15.069h74.681c5.623,0,9.728,5.173,8.669,10.699
			C460.041,300.269,452.016,319.134,440.77,335.668"/>
	</g>
</g>
<g>
</g>
<g>
</g>
<g>
</g>
<g>
</g>
<g>
</g>
<g>
</g>
<g>
</g>
<g>
</g>
<g>
</g>
<g>
</g>
<g>
</g>
<g>
</g>
<g>
</g>
<g>
</g>
<g>
</g>
</svg>
