<?xml version="1.0" encoding="iso-8859-1"?>
<!-- Generator: Adobe Illustrator 19.0.0, SVG Export Plug-In . SVG Version: 6.00 Build 0)  -->
<svg version="1.1" id="Capa_1" xmlns="http://www.w3.org/2000/svg" xmlns:xlink="http://www.w3.org/1999/xlink" x="0px" y="0px"
	 viewBox="0 0 512 512" style="enable-background:new 0 0 512 512;" xml:space="preserve">
<circle style="fill:#1B56DB;" cx="256" cy="256" r="256"/>
<path style="fill:#0619BD;" d="M256.658,511.992c139.102-0.351,252.122-111.638,255.267-250.067l-58.386-58.982L43.133,240.768
	l44.05,44.05l-28.312,29.218L256.658,511.992z"/>
<path style="fill:#FDDF7B;" d="M43.133,275.794h425.733l0,0c0,30.01-24.328,54.338-54.338,54.338H97.471
	C67.461,330.132,43.133,305.804,43.133,275.794L43.133,275.794z"/>
<path style="fill:#FDD03B;" d="M255.952,275.794v54.338h158.576c30.01,0,54.338-24.328,54.338-54.338l0,0H255.952z"/>
<path style="fill:#6BBF32;" d="M322.31,263.616H207.518l-21.288,20.98c0,0,12.704,18.011,8.285,26.677
	c-4.419,8.667,3.866,16.333,32.036,8.667s43.635,16,76.224-4.667s20.989-50,20.989-50L322.31,263.616z"/>
<path style="fill:#4FA811;" d="M323.764,265.273l-1.454-1.657h-66.357v57.272c13.741,3.188,27.168,6.85,46.823-5.615
	C335.364,294.607,323.764,265.273,323.764,265.273z"/>
<path style="fill:#6BBF32;" d="M317.065,263.116c-9.579,10.75-19.345,20.108-28.857,26.814
	c-28.14,19.839-0.946,24.677,11.347,18.011c12.293-6.667,19.858-5.333,34.988,5.333c15.13,10.667,30.26,11.333,50.118-0.667
	s26.478,16,51.064-12.667c8.579-10.003,8.173-23.495,4.013-36.825H317.065V263.116z"/>
<path style="fill:#4FA811;" d="M223.792,289.93c-9.512-6.706-19.278-16.064-28.857-26.814H72.261
	c-4.159,13.33-4.565,26.822,4.013,36.825c24.586,28.667,31.206,0.667,51.064,12.667s34.988,11.333,50.118,0.667
	c15.13-10.667,22.695-12,34.988-5.333C224.738,314.607,251.932,309.769,223.792,289.93z"/>
<circle style="fill:#FF6D38;" cx="94.42" cy="253.03" r="45.42"/>
<circle style="fill:#FE6D00;" cx="419.5" cy="253.03" r="45.42"/>
<circle style="fill:#C20231;" cx="338.23" cy="253.03" r="45.42"/>
<circle style="fill:#FF6D38;" cx="256.96" cy="253.03" r="45.42"/>
<path style="fill:#FE6D00;" d="M256.958,207.616c-0.337,0-0.67,0.018-1.006,0.025v90.786c0.336,0.007,0.669,0.025,1.006,0.025
	c25.084,0,45.418-20.334,45.418-45.418S282.042,207.616,256.958,207.616z"/>
<circle style="fill:#D6283B;" cx="175.69" cy="253.03" r="45.42"/>
<path style="fill:#FDDF7B;" d="M468.867,240.767H43.134l0,0c0-30.01,24.328-54.338,54.338-54.338h317.057
	C444.539,186.43,468.867,210.758,468.867,240.767L468.867,240.767z"/>
<path style="fill:#FDD03B;" d="M468.867,240.768c0-30.01-24.328-54.338-54.338-54.338H255.952v54.338H468.867L468.867,240.768z"/>
<g>
</g>
<g>
</g>
<g>
</g>
<g>
</g>
<g>
</g>
<g>
</g>
<g>
</g>
<g>
</g>
<g>
</g>
<g>
</g>
<g>
</g>
<g>
</g>
<g>
</g>
<g>
</g>
<g>
</g>
</svg>
