<?xml version="1.0" encoding="iso-8859-1"?>
<!-- Generator: Adobe Illustrator 19.0.0, SVG Export Plug-In . SVG Version: 6.00 Build 0)  -->
<svg version="1.1" id="Capa_1" xmlns="http://www.w3.org/2000/svg" xmlns:xlink="http://www.w3.org/1999/xlink" x="0px" y="0px"
	 viewBox="0 0 512 512" style="enable-background:new 0 0 512 512;" xml:space="preserve">
<circle style="fill:#1B56DB;" cx="256" cy="256" r="256"/>
<path style="fill:#0619BD;" d="M512,256c0-6.887-0.28-13.707-0.814-20.457L406.719,129.781L70.93,332.022l40.542,40.542
	l-5.431,2.906l136.157,136.157c4.57,0.243,9.17,0.373,13.801,0.373C397.385,512,512,397.385,512,256z"/>
<path style="fill:#FDD03B;" d="M434.716,199.677c0-55.965-45.369-101.333-101.334-101.333H178.618
	c-55.965,0-101.334,45.369-101.334,101.333c0,10.142,1.509,19.928,4.281,29.167h348.869
	C433.207,219.605,434.716,209.819,434.716,199.677z"/>
<path style="fill:#FCAD39;" d="M434.716,199.677c0-55.965-45.369-101.333-101.334-101.333h-77.429v130.5h174.482
	C433.207,219.605,434.716,209.819,434.716,199.677z"/>
<path style="fill:#FDD03B;" d="M81.566,333.942c12.528,41.744,51.229,72.167,97.052,72.167h154.764
	c45.823,0,84.524-30.423,97.052-72.167H81.566z"/>
<path style="fill:#FCAD39;" d="M255.952,333.942v72.167h77.429c45.823,0,84.524-30.423,97.052-72.167H255.952z"/>
<path style="fill:#89CA15;" d="M423.546,306.481H88.454c-14.309,0-25.909-11.6-25.909-25.909l0,0
	c0-14.309,11.6-25.909,25.909-25.909h335.092c14.309,0,25.909,11.6,25.909,25.909l0,0
	C449.455,294.881,437.855,306.481,423.546,306.481z"/>
<path style="fill:#69AC05;" d="M423.546,254.663H255.952v51.818h167.594c14.309,0,25.909-11.6,25.909-25.909l0,0
	C449.455,266.263,437.855,254.663,423.546,254.663z"/>
<path style="fill:#88372F;" d="M423.546,338.851H88.454c-14.309,0-25.909-11.6-25.909-25.909l0,0
	c0-14.309,11.6-25.909,25.909-25.909h335.092c14.309,0,25.909,11.6,25.909,25.909l0,0
	C449.455,327.252,437.855,338.851,423.546,338.851z"/>
<path style="fill:#731D15;" d="M423.546,287.033H255.952v51.818h167.594c14.309,0,25.909-11.6,25.909-25.909l0,0
	C449.455,298.633,437.855,287.033,423.546,287.033z"/>
<path style="fill:#88372F;" d="M423.546,272.524H88.454c-14.309,0-25.909-11.6-25.909-25.909l0,0
	c0-14.309,11.6-25.909,25.909-25.909h335.092c14.309,0,25.909,11.6,25.909,25.909l0,0
	C449.455,260.924,437.855,272.524,423.546,272.524z"/>
<path style="fill:#731D15;" d="M423.546,220.706H255.952v51.818h167.594c14.309,0,25.909-11.6,25.909-25.909l0,0
	C449.455,232.306,437.855,220.706,423.546,220.706z"/>
<polygon style="fill:#F7D900;" points="284.192,220.706 196.439,308.458 108.687,220.706 "/>
<polygon style="fill:#E8B71A;" points="284.192,220.706 196.429,220.706 196.429,308.448 196.439,308.458 "/>
<g>
</g>
<g>
</g>
<g>
</g>
<g>
</g>
<g>
</g>
<g>
</g>
<g>
</g>
<g>
</g>
<g>
</g>
<g>
</g>
<g>
</g>
<g>
</g>
<g>
</g>
<g>
</g>
<g>
</g>
</svg>
