<?xml version="1.0" encoding="iso-8859-1"?>
<!-- Generator: Adobe Illustrator 19.0.0, SVG Export Plug-In . SVG Version: 6.00 Build 0)  -->
<svg version="1.1" id="Capa_1" xmlns="http://www.w3.org/2000/svg" xmlns:xlink="http://www.w3.org/1999/xlink" x="0px" y="0px"
	 viewBox="0 0 512 512" style="enable-background:new 0 0 512 512;" xml:space="preserve">
<circle style="fill:#D6283B;" cx="256" cy="256" r="256"/>
<path style="fill:#C20231;" d="M277.635,511.081c128.797-10.781,230.48-116.898,234.247-247.57L412.62,164.25L70.061,300.15
	l39.397,39.397l-2.387,0.971L277.635,511.081z"/>
<path style="fill:#FDD03B;" d="M333.382,126.079H178.618c-55.516,0-100.597,44.645-101.317,99.99h357.397
	C433.979,170.724,388.898,126.079,333.382,126.079z"/>
<path style="fill:#FCAD39;" d="M333.382,126.079h-77.43v99.99h178.746C433.979,170.725,388.898,126.079,333.382,126.079z"/>
<path style="fill:#FDD03B;" d="M81.566,297.942c12.528,41.744,51.229,72.167,97.052,72.167h154.764
	c45.823,0,84.524-30.423,97.052-72.167H81.566z"/>
<path style="fill:#FCAD39;" d="M255.952,297.941v72.167h77.43c45.823,0,84.524-30.423,97.052-72.167H255.952z"/>
<path style="fill:#6BBF32;" d="M423.546,307.814H88.454c-14.309,0-25.909-11.6-25.909-25.909l0,0
	c0-14.309,11.6-25.909,25.909-25.909h335.092c14.309,0,25.909,11.6,25.909,25.909l0,0
	C449.455,296.214,437.855,307.814,423.546,307.814z"/>
<path style="fill:#4FA811;" d="M423.546,255.996H255.952v51.818h167.593c14.309,0,25.909-11.6,25.909-25.909l0,0
	C449.455,267.596,437.855,255.996,423.546,255.996z"/>
<path style="fill:#88372F;" d="M423.546,273.857H88.454c-14.309,0-25.909-11.6-25.909-25.909l0,0
	c0-14.309,11.6-25.909,25.909-25.909h335.092c14.309,0,25.909,11.6,25.909,25.909l0,0
	C449.455,262.257,437.855,273.857,423.546,273.857z"/>
<path style="fill:#731D15;" d="M423.546,222.039H255.952v51.818h167.593c14.309,0,25.909-11.6,25.909-25.909l0,0
	C449.455,233.639,437.855,222.039,423.546,222.039z"/>
<polygon style="fill:#FEEFBB;" points="256.192,222.039 168.439,309.791 80.687,222.039 "/>
<polygon style="fill:#FDDF7B;" points="168.452,222.039 168.452,309.778 256.192,222.039 "/>
<g>
</g>
<g>
</g>
<g>
</g>
<g>
</g>
<g>
</g>
<g>
</g>
<g>
</g>
<g>
</g>
<g>
</g>
<g>
</g>
<g>
</g>
<g>
</g>
<g>
</g>
<g>
</g>
<g>
</g>
</svg>
